<svg xmlns="http://www.w3.org/2000/svg" width="35" height="44.39" viewBox="0 0 35 44.39">
  <g id="levels_bonuses_icon" data-name="levels&amp;bonuses_icon" transform="translate(-54.154)">
    <g id="Group_4165" data-name="Group 4165" transform="translate(54.154)">
      <g id="Group_4164" data-name="Group 4164" transform="translate(0)">
        <path id="Path_4032" data-name="Path 4032" d="M71.654,0a17.5,17.5,0,0,0-9.817,31.98V43.11a1.28,1.28,0,0,0,1.806,1.168l8.011-3.6,8.011,3.6a1.281,1.281,0,0,0,1.806-1.168V31.98A17.5,17.5,0,0,0,71.654,0ZM78.91,41.129,72.179,38.1a1.28,1.28,0,0,0-1.051,0L64.4,41.129v-7.7a17.411,17.411,0,0,0,1.977.758l.115.036.258.077.192.055.209.057.245.064.174.042.284.066.148.032q.156.033.313.064l.128.025q.166.031.334.059l.115.019q.173.028.347.051l.108.015c.117.016.235.029.353.043l.105.012c.118.012.236.023.354.033l.108.01c.117.009.234.017.351.023l.113.007c.119.006.237.01.357.014l.107,0q.231.006.464.006t.463-.006l.107,0c.119,0,.238-.008.357-.014l.113-.007c.117-.007.234-.014.351-.023l.108-.01c.118-.01.236-.021.354-.033l.105-.012c.118-.013.236-.027.353-.043l.108-.015q.174-.024.347-.051l.115-.019q.167-.028.334-.059L75,34.679l.313-.064.148-.032.284-.066.174-.042.245-.064.209-.057.192-.055.258-.077.115-.036a17.41,17.41,0,0,0,1.977-.758v7.7Zm-2.381-9.508-.153.052-.235.076q-.137.043-.275.083l-.195.056q-.182.051-.366.1l-.137.034q-.18.043-.361.083l-.091.02q-.233.049-.468.09l-.048.008q-.212.037-.425.067l-.1.014c-.151.021-.3.039-.455.055l-.017,0q-.239.025-.479.042l-.1.007q-.187.012-.374.019l-.127,0c-.157,0-.313.008-.471.008s-.314,0-.471-.008l-.127,0q-.187-.007-.374-.019l-.1-.007q-.24-.017-.479-.042l-.017,0c-.152-.016-.3-.035-.455-.055l-.1-.014q-.213-.03-.425-.067l-.048-.008q-.235-.041-.468-.09L68.5,32.1q-.181-.039-.36-.083L68,31.987q-.184-.046-.366-.1l-.195-.056q-.138-.04-.275-.083l-.235-.076-.153-.052a14.939,14.939,0,1,1,9.75,0Z" transform="translate(-54.154)" fill="#fff"/>
      </g>
    </g>
    <g id="Group_4167" data-name="Group 4167" transform="translate(62.669 8.309)">
      <g id="Group_4166" data-name="Group 4166" transform="translate(0)">
        <path id="Path_4033" data-name="Path 4033" d="M154.027,78.742l2.049-3.851a1.091,1.091,0,0,0-.925-1.6l-4.36-.151-2.311-3.7a1.091,1.091,0,0,0-1.85,0l-2.311,3.7-4.36.151a1.091,1.091,0,0,0-.925,1.6l2.049,3.851-2.049,3.851a1.091,1.091,0,0,0,.925,1.6l4.36.151,2.311,3.7a1.091,1.091,0,0,0,1.85,0l2.311-3.7,4.36-.151a1.091,1.091,0,0,0,.925-1.6Zm-3.891,3.444a1.091,1.091,0,0,0-.887.512l-1.693,2.711L145.863,82.7a1.091,1.091,0,0,0-.887-.512l-3.194-.111,1.5-2.821a1.09,1.09,0,0,0,0-1.025l-1.5-2.821,3.194-.111a1.091,1.091,0,0,0,.887-.512l1.693-2.711,1.693,2.711a1.091,1.091,0,0,0,.887.512l3.194.111-1.5,2.821a1.091,1.091,0,0,0,0,1.025l1.5,2.821Z" transform="translate(-138.907 -68.924)" fill="#fff"/>
      </g>
    </g>
  </g>
</svg>
