<svg xmlns="http://www.w3.org/2000/svg" width="44" height="33.274" viewBox="0 0 44 33.274">
  <path id="card_payment" data-name="card payment" d="M42.134,13.007H38L36.817,6.3A2.883,2.883,0,0,0,33.5,3.969L3.371,9.282a2.87,2.87,0,0,0-2.324,3.324L4.259,30.821a2.859,2.859,0,0,0,3.322,2.33l1.1-.194v1.377A2.87,2.87,0,0,0,11.545,37.2H42.134A2.871,2.871,0,0,0,45,34.334V15.874A2.871,2.871,0,0,0,42.134,13.007Zm.118,2.867v2.7H11.44l.106-2.813ZM6.966,30.344,4.273,15.073,3.849,11.99,34.11,6.775l1.1,6.232H11.545a2.87,2.87,0,0,0-2.867,2.867V30.116ZM42.134,34.45l-30.7-.116V23.44H42.252V34.334A.118.118,0,0,1,42.134,34.45Z" transform="translate(-1.002 -3.927)" fill="#fff"/>
</svg>
