<svg xmlns="http://www.w3.org/2000/svg" xmlns:xlink="http://www.w3.org/1999/xlink" width="50" height="50" viewBox="0 0 50 50">
  <defs>
    <clipPath id="clip-path">
      <rect id="Rectangle_229" data-name="Rectangle 229" width="50" height="50" fill="#6dbcdb" stroke="#707070" stroke-width="1"/>
    </clipPath>
  </defs>
  <g id="Icon" clip-path="url(#clip-path)">
    <g id="increased-revenue_1_" data-name="increased-revenue (1)" transform="translate(0.303)">
      <g id="Layer_1_87_">
        <g id="Group_959" data-name="Group 959">
          <path id="Path_363" data-name="Path 363" d="M43.815,9.97c0-.89-.9-1.15-1.608-1.307v2.589C42.992,11.2,43.815,10.83,43.815,9.97Z" transform="translate(-0.303)" fill="#6dbcdb"/>
          <path id="Path_364" data-name="Path 364" d="M41.422,4.452c-.889.026-1.466.55-1.466,1.112,0,.654.487,1.033,1.467,1.229V4.452Z" transform="translate(-0.303)" fill="#6dbcdb"/>
          <path id="Path_365" data-name="Path 365" d="M41.789,15.815a7.908,7.908,0,1,0-7.91-7.907A7.916,7.916,0,0,0,41.789,15.815ZM38.311,5.864c0-1.777,1.478-2.695,3.112-2.746v-.7a.4.4,0,1,1,.784,0v.7c1.018.027,3.113.666,3.113,1.95a.786.786,0,0,1-.824.81c-.852,0-.838-1.4-2.287-1.425V6.937c1.728.366,3.255.877,3.255,2.89,0,1.751-1.307,2.641-3.255,2.759V13.4a.4.4,0,1,1-.784,0v-.808c-2.209-.054-3.307-1.374-3.307-2.408a.753.753,0,0,1,.81-.823c1.465,0,.327,1.8,2.5,1.9V8.518C39.486,8.165,38.311,7.316,38.311,5.864Z" transform="translate(-0.303)" fill="#6dbcdb"/>
          <path id="Path_366" data-name="Path 366" d="M9.952,35.225H3.134A2.273,2.273,0,0,0,.862,37.5V47.725A2.273,2.273,0,0,0,3.134,50H9.952a2.271,2.271,0,0,0,2.272-2.273V37.5A2.271,2.271,0,0,0,9.952,35.225Z" transform="translate(-0.303)" fill="#6dbcdb"/>
          <path id="Path_367" data-name="Path 367" d="M27.572,27.272H20.754a2.273,2.273,0,0,0-2.272,2.273V47.727A2.272,2.272,0,0,0,20.754,50h6.818a2.272,2.272,0,0,0,2.273-2.273V29.542A2.272,2.272,0,0,0,27.572,27.272Z" transform="translate(-0.303)" fill="#6dbcdb"/>
          <path id="Path_368" data-name="Path 368" d="M45.2,18.181H38.379a2.273,2.273,0,0,0-2.273,2.272V47.725A2.272,2.272,0,0,0,38.379,50H45.2a2.272,2.272,0,0,0,2.273-2.273V20.454A2.272,2.272,0,0,0,45.2,18.181Z" transform="translate(-0.303)" fill="#6dbcdb"/>
          <path id="Path_369" data-name="Path 369" d="M31.568,11.672l-5.643-1.18a1.136,1.136,0,0,0-1.235,1.647l1.251,2.352L.918,27.4a1.136,1.136,0,0,0,.522,2.145,1.117,1.117,0,0,0,.52-.127L27.006,16.5l1.148,2.157a1.136,1.136,0,0,0,1,.6l.057,0a1.135,1.135,0,0,0,.995-.705l2.18-5.338a1.131,1.131,0,0,0-.049-.963A1.154,1.154,0,0,0,31.568,11.672Z" transform="translate(-0.303)" fill="#6dbcdb"/>
        </g>
      </g>
    </g>
  </g>
</svg>
